<svg xmlns="http://www.w3.org/2000/svg" shape-rendering="geometricPrecision" text-rendering="geometricPrecision" image-rendering="optimizeQuality" fill-rule="evenodd" clip-rule="evenodd" viewBox="0 0 512 305.67"><g fill-rule="nonzero"><path fill="gray" d="M48.18 0h415.64c13.26 0 25.31 5.42 34.03 14.15C506.58 22.88 512 34.92 512 48.18V257.5c0 13.25-5.42 25.3-14.15 34.03s-20.77 14.15-34.03 14.15H48.18c-13.26 0-25.3-5.42-34.03-14.15S0 270.75 0 257.5V48.18c0-13.26 5.42-25.31 14.15-34.03C22.87 5.42 34.92 0 48.18 0zm415.64 16.6H48.18c-8.68 0-16.57 3.56-22.29 9.29-5.73 5.72-9.28 13.61-9.28 22.29V257.5c0 8.67 3.55 16.56 9.28 22.29 5.72 5.72 13.62 9.28 22.29 9.28h415.64c8.67 0 16.56-3.56 22.29-9.28 5.73-5.73 9.29-13.62 9.29-22.29V48.18c0-8.67-3.56-16.57-9.29-22.29-5.72-5.73-13.62-9.29-22.29-9.29z"/><path fill="#1434CB" d="M303.27 102.24c-22.18 0-42 11.49-42 32.73 0 24.35 35.15 26.04 35.15 38.27 0 5.16-5.9 9.77-15.99 9.77-14.31 0-25-6.45-25-6.45L250.85 198s12.32 5.44 28.68 5.44c24.25 0 43.33-12.06 43.33-33.66 0-25.74-35.3-27.37-35.3-38.73 0-4.03 4.85-8.45 14.9-8.45 11.35 0 20.61 4.68 20.61 4.68l4.48-20.7s-10.08-4.34-24.28-4.34zm-202.91 1.56l-.53 3.12s9.33 1.71 17.73 5.12c10.82 3.9 11.59 6.18 13.41 13.24l19.86 76.55h26.62l41.01-98.03H191.9l-26.35 66.65-10.75-56.5c-.99-6.47-5.98-10.15-12.1-10.15H100.36zm128.78 0l-20.83 98.03h25.32l20.76-98.03h-25.25zm141.25 0c-6.11 0-9.35 3.27-11.72 8.98l-37.1 89.05h26.56l5.13-14.85h32.36l3.12 14.85h23.43l-20.44-98.03h-21.34zm3.45 26.48l7.87 36.79h-21.09l13.22-36.79z"/></g></svg>